<svg width="768" height="758" viewBox="0 0 768 758" fill="none" xmlns="http://www.w3.org/2000/svg">
<path d="M214.442 0C203.411 0 192.584 0.87351 182.026 2.55513V57.4753C211.469 29.001 249.442 9.29242 291.74 2.55513V0H214.442Z" fill="#DDA853"/>
<path d="M77.2987 52.81V109.711H33.2073C18.3678 138.035 9.97403 170.267 9.97403 204.461C9.97403 152.132 52.3965 109.711 104.727 109.711H142.922C153.122 90.2413 166.367 72.6186 182.026 57.4753V2.55513C142.079 8.91801 105.988 26.8506 77.2987 52.81Z" fill="#DDA853"/>
<path d="M77.2987 109.711V52.81C59.4547 68.9559 44.4734 88.2068 33.2073 109.711H77.2987Z" fill="#DDA853"/>
<path d="M119.688 553.539V204.461C119.688 204.461 128.082 138.035 142.922 109.711H104.727C52.3965 109.711 9.97403 152.132 9.97403 204.461V648.289H24.9351C77.2658 648.289 119.688 605.868 119.688 553.539Z" fill="#DDA853"/>
<path d="M239.377 648.289H129.662H119.688H24.9351H9.97403V758H129.662C184.888 758 235.001 736.106 271.792 700.525V648.289H310.897C325.736 619.965 334.13 587.733 334.13 553.539C334.13 605.868 291.707 648.289 239.377 648.289Z" fill="#DDA853"/>
<path d="M119.688 648.289V553.539C119.688 605.868 77.2658 648.289 24.9351 648.289H119.688Z" fill="#DDA853"/>
<path d="M271.792 755.445C369.312 739.912 443.844 655.429 443.844 553.539C443.844 605.868 401.422 648.289 349.091 648.289H310.897C300.696 667.759 287.451 685.381 271.792 700.525V755.445Z" fill="#DDA853"/>
<path d="M129.662 758H239.377C250.408 758 261.235 757.126 271.792 755.445V700.525C235.001 736.106 184.888 758 129.662 758Z" fill="#DDA853"/>
<path d="M271.792 648.289V700.525C287.451 685.381 300.696 667.759 310.897 648.289H271.792Z" fill="#DDA853"/>
<path d="M334.13 204.461V553.539C334.13 587.733 325.736 619.965 310.897 648.289H349.091C401.422 648.289 443.844 605.868 443.844 553.539V204.461V109.711H428.883C376.552 109.711 334.13 152.132 334.13 204.461Z" fill="#DDA853"/>
<path d="M538.597 0C459.867 0 391.53 44.4957 357.363 109.711H428.883H443.844H538.597H548.571H658.286V0H538.597Z" fill="#DDA853"/>
<path d="M334.13 204.461C334.13 152.132 376.552 109.711 428.883 109.711H357.363C342.524 138.035 334.13 170.267 334.13 204.461Z" fill="#DDA853"/>
<path d="M443.844 204.461C443.844 152.132 486.267 109.711 538.597 109.711H443.844V204.461Z" fill="#DDA853"/>
<path d="M563.532 758C676.457 758 768 666.46 768 553.539V0H658.286V109.711C658.286 109.711 658.286 380.213 658.286 553.539C658.424 652.285 583.754 739.912 486.234 755.445V758H563.532Z" fill="#DDA853"/>
</svg>
